<?xml version="1.0" encoding="UTF-8"?><svg id="Layer_2" xmlns="http://www.w3.org/2000/svg" viewBox="0 0 292.28 292.75"><defs><style>.cls-1{fill:#494354;}</style></defs><path class="cls-1" d="M163.75,188.41c0-14.3-4.77-27.26-12.92-37.2,3.03-4,4.83-9,4.83-14.41,0-13.2-10.73-23.94-23.92-23.94-11.31,0-20.81,7.87-23.29,18.42h-.4c-5.12,0-10.18,.7-15.09,2.04,0,0-31.23-6.47-34.12-4.23-1.67,1.28-4.51,17.66-6.26,28.71-7.18-6.67-25.25-16.05-33.96-17.86-3.17-.66-8.19,8.84-6.19,11.38,3.09,3.96,24.89,15.13,33.58,19.48-6.27,3.87-16.15,10.47-16.15,13.64,0,6.15,26.13,31.16,26.13,31.16,0,0-5.6,21.97-2.16,25.4,4.16,4.16,32.76,1.21,32.76,1.21,0,0,23.21,21.14,27.19,21.14,2.61,0,17.31-22.53,17.31-22.53,0,0,28.01,3.82,29.52,2.03,2.45-2.9-2.66-29.25-2.66-29.25,3.79-7.8,5.81-16.48,5.81-25.19Zm-51.12-52.04c11.87,1.09,22.84,6.84,31.07,15.31-3.28,2.65-7.45,4.23-11.97,4.23-10.55,0-19.11-8.58-19.11-19.11,0-.14,0-.29,.01-.43Zm-41.99,61c-.52,.5-1.37,.81-2.14,.81-.12,0-.25-.01-.37-.03-2.34-.36-6.66-4.69-7.1-7.14-.03-.22-.06-.44-.08-.79l-.08-.85,.08-.22c.12-.29,.23-.61,.36-.94,.33-.9,.72-1.92,1.21-2.9,.32-.66,.87-1.13,1.53-1.34,.63-.19,1.32-.12,1.92,.19,1.12,.62,1.57,1.74,1.23,3.08-.15,.58-.34,1.06-.57,1.48-.44,.83-.51,1.57,.63,2.52,.69,.58,1.38,1.16,2.07,1.75l.23,.19c.34,.29,.69,.58,1.01,.97,.91,1.09,.94,2.39,.07,3.21Zm2.25-40.36c.37,.7,.72,1.43,1.06,2.15l.58,1.19c.18,.36,.37,.72,.51,1.13,.57,1.57,.11,3.02-1.16,3.7-.41,.21-.83,.32-1.24,.32-.99,0-1.93-.58-2.48-1.61-.97-1.78-1.79-3.59-2.63-5.43-.22-.51-.29-1.03-.34-1.38,0-.08-.01-.15-.03-.21v-.21c.01-2.85,2.98-6.47,5.54-6.77,.83-.1,1.86,.29,2.47,.92,.85,.88,.79,2.25-.17,3.24-.39,.4-.81,.74-1.21,1.08-.19,.17-.4,.33-.59,.5-.61,.52-.58,.9-.3,1.39Zm30.27,71.5c-.46,.8-1.31,1.39-2.4,1.65-1.67,.41-3.39,.76-5.05,1.08-.72,.14-1.42,.28-2.14,.43h-.22c-2.32-.06-4.03-.99-5.07-2.77-.79-1.34-1.43-2.76-2.04-4.14l-.28-.61c-.28-.62-.28-1.31-.25-1.78,.07-1.13,.76-1.97,1.85-2.26,1.13-.29,2.18,.14,2.73,1.14,.28,.5,.48,.99,.68,1.48,.12,.29,.25,.58,.37,.85,.3,.62,.62,1.24,.95,1.85,.33,.62,.7,.81,1.37,.69,.69-.12,1.39-.25,2.1-.37,1.23-.21,2.51-.43,3.74-.69,.8-.18,3.25-.69,3.9,1.48,.19,.65,.11,1.35-.23,1.97Zm3.96-34.07c-.11,1.09-.98,2.29-3.08,2.34h-.23s-.06,0-.08-.01h0c-6.69-.62-8.84-3.27-8.56-10.45,.03-.8,.32-1.46,.83-1.93,.47-.43,1.08-.65,1.74-.61,1.28,.07,2.15,1.03,2.34,2.59,.07,.59,.11,1.19,.17,1.79,.04,.43,.07,.85,.12,1.28,.1,.97,.57,1.48,1.5,1.68,.76,.17,1.53,.29,2.29,.43l.33,.06c2.68,.47,2.69,2.28,2.63,2.83Zm33.83,26.52c-2.33,2.98-5.25,4.94-8.67,5.82-.14,.03-.26,.04-.37,.04-.07,0-.14,0-.19-.01l-.06-.97v.97c-1.42,0-2.63-.58-3.59-1.71-1.52-1.78-2.72-3.28-3.78-4.72-.41-.55-.76-1.53-.57-2.39,.18-.8,1.01-1.78,1.89-1.88,.8-.1,1.85,.32,2.44,.95,.63,.7,1.21,1.46,1.76,2.19,.33,.45,.68,.9,1.02,1.32,.26,.33,.81,1.01,1.01,1.08,.21,0,.95-.47,1.24-.65,.85-.52,1.65-1.13,2.5-1.78,.29-.22,.57-.44,.85-.65,.14-.11,.26-.23,.4-.34,.18-.18,.4-.39,.65-.57,1.17-.81,2.22-.85,3.1-.12,1.08,.87,1.21,2.3,.36,3.41Zm13.46-14.27l-17.35,1.71s1.64-11.83-.91-14.35c-2.51-2.47-14.05-.69-14.05-.69,0,0-.04-21.28-5.3-26.61-3.59-3.63-22.42-8.05-22.42-8.05l3.43-21.28c3.27-.74,6.62-1.16,10-1.2-.01,.19-.01,.4-.01,.59,0,13.2,10.73,23.94,23.94,23.94,5.78,0,11.06-2.05,15.2-5.46,7.23,8.87,11.68,20.04,11.68,31.7,0,6.78-1.45,13.54-4.21,19.71Zm31.75-68.68v7.58h-15.02c-1.99,0-3.6-1.6-3.6-3.59s1.61-4,3.6-4h15.02Zm95.06,3.94c.06,2.04-1.46,3.61-3.48,3.61,0,0-53.19,0-53.49,0v61.64c-.06,23.05,17.17,45.45,38.35,45.45,.83,0,1.65-.02,2.46-.08,.92-.06,1.82-.14,2.72-.26,1.11-.15,1.7,1.25,.82,1.95-8.67,6.86-19.63,10.95-31.54,10.95-23.76,0-43.72-16.28-49.33-38.29-1.03-4.03-1.58-14.53-1.58-18.88v-62.44h20.86c2.02,0,3.66-1.66,3.59-3.7s-1.78-3.89-3.75-3.89h-20.71v-17.94c0-5.67-4.6-10.27-10.27-10.27h-.11c-.68,0-.93-.89-.35-1.24l10.72-6.57,36.5-22.35c.7-.43,1.6,.07,1.6,.89v57.49c.3,0,53.34,0,53.34,0,1.97,0,3.57,1.98,3.63,3.94Zm-107.46-58.86c0,9.51-7.74,17.25-17.25,17.25s-17.25-7.74-17.25-17.25,7.74-17.25,17.25-17.25,17.25,7.74,17.25,17.25Zm-39.72-43.96c0,6.38-5.19,11.57-11.57,11.57s-11.57-5.19-11.57-11.57,5.19-11.57,11.57-11.57,11.57,5.19,11.57,11.57Zm-52.13,3.87c0,5-4.07,9.08-9.08,9.08s-9.08-4.07-9.08-9.08,4.07-9.08,9.08-9.08,9.08,4.07,9.08,9.08Z"/></svg>